<svg width="32" height="32" viewBox="0 0 32 32" fill="none" xmlns="http://www.w3.org/2000/svg">
<rect y="0.275879" width="31.4483" height="31.4483" rx="3.93103" fill="#36A699"/>
<rect x="2.62061" y="2.89648" width="11.7931" height="26.2069" rx="1.96552" fill="white"/>
<rect x="17.0342" y="2.89648" width="11.7931" height="26.2069" rx="1.96552" fill="white"/>
<path d="M6.68966 23.7241C6.68966 24.4478 7.27632 25.0345 8 25.0345C8.72368 25.0345 9.31034 24.4478 9.31034 23.7241H6.68966ZM8 8L8.89838 7.04611C8.51777 6.68764 7.96047 6.58975 7.48048 6.79705C7.00048 7.00434 6.68966 7.47715 6.68966 8H8ZM15.8621 15.4046L14.9637 16.3585L15.8621 17.2046L16.7605 16.3585L15.8621 15.4046ZM23.7241 8H25.0345C25.0345 7.47715 24.7237 7.00434 24.2437 6.79705C23.7637 6.58975 23.2064 6.68764 22.8258 7.04611L23.7241 8ZM22.4138 23.7241C22.4138 24.4478 23.0005 25.0345 23.7241 25.0345C24.4478 25.0345 25.0345 24.4478 25.0345 23.7241H22.4138ZM9.31034 23.7241V8H6.68966V23.7241H9.31034ZM7.10162 8.95389L14.9637 16.3585L16.7605 14.4507L8.89838 7.04611L7.10162 8.95389ZM16.7605 16.3585L24.6225 8.95389L22.8258 7.04611L14.9637 14.4507L16.7605 16.3585ZM22.4138 8V23.7241H25.0345V8H22.4138Z" fill="#36A699"/>
</svg>
